<svg xmlns="http://www.w3.org/2000/svg" xmlns:xlink="http://www.w3.org/1999/xlink" width="12" height="12" viewBox="0 0 12 12">
    <defs>
        <path id="prefix__a" d="M6 15.95l-3.168 1.751c-.145.08-.327.028-.407-.117-.033-.06-.045-.127-.034-.194L3 13.658.408 11.001c-.116-.118-.114-.308.005-.424.045-.044.102-.072.164-.082l3.569-.545L5.728 6.58c.07-.15.25-.215.4-.145.063.03.114.081.144.145L7.854 9.95l3.569.545c.164.025.276.178.251.342-.01.062-.038.12-.082.164L9 13.658l.609 3.732c.026.164-.085.318-.248.345-.066.01-.135-.001-.193-.034L6 15.951z"/>
    </defs>
    <g fill="none" fill-rule="evenodd" transform="translate(0 -6)">
        <path stroke="#E7AC00" stroke-width=".5" d="M5.76 7.098L4.325 10.16l-3.443.968 2.373 2.433-.153 3.706 2.882-1.593 3.308 1.32-.555-3.402 2.232-2.913-3.264-.499L5.76 7.098z"/>
    </g>
</svg>
