<svg width="60" height="60" viewBox="0 0 60 60" fill="none" xmlns="http://www.w3.org/2000/svg">
    <path d="M30 60a30 30 0 1 1 27.718-18.518A29.992 29.992 0 0 1 30 60z" fill="#6957E8"/>
    <path d="M30 57c7.215 0 13.996-2.808 19.094-7.906C54.192 43.996 57 37.215 57 30c0-7.215-2.808-13.996-7.906-19.094C43.996 5.808 37.215 3 30 3c-7.215 0-13.996 2.808-19.094 7.906C5.808 16.004 3 22.785 3 30c0 7.215 2.808 13.996 7.906 19.094C16.004 54.192 22.785 57 30 57zm0 3C13.425 60 0 46.575 0 30S13.425 0 30 0s30 13.425 30 30-13.425 30-30 30z" fill="#6957E8"/>
    <path d="m16.157 27.692 10.385 10.384L43.849 20.77" stroke="#fff" stroke-width="2" stroke-linecap="round"/>
</svg>
