<svg width="22" height="22" viewBox="0 0 22 22" fill="none" xmlns="http://www.w3.org/2000/svg">
    <path d="M11 20a9 9 0 1 1 0-17.999A9 9 0 0 1 11 20z" fill="#6957E8"/>
    <path d="M11 19.1a8.048 8.048 0 0 0 5.728-2.372A8.048 8.048 0 0 0 19.1 11a8.048 8.048 0 0 0-2.372-5.728A8.048 8.048 0 0 0 11 2.9a8.047 8.047 0 0 0-5.728 2.372A8.047 8.047 0 0 0 2.9 11c0 2.165.842 4.199 2.372 5.728A8.048 8.048 0 0 0 11 19.1zm0 .9c-4.973 0-9-4.027-9-9s4.027-9 9-9 9 4.027 9 9-4.027 9-9 9z" fill="#6957E8"/>
    <path d="M6.5 10.4 9.875 14 15.5 8" stroke="#fff" stroke-width="1.5" stroke-linecap="round"/>
</svg>
