<svg width="22" height="22" viewBox="0 0 22 22" fill="none" xmlns="http://www.w3.org/2000/svg">
    <path d="M11 20.9a9.836 9.836 0 0 0 7.001-2.899A9.836 9.836 0 0 0 20.9 11a9.836 9.836 0 0 0-2.899-7.001A9.836 9.836 0 0 0 11 1.1a9.836 9.836 0 0 0-7.001 2.899A9.836 9.836 0 0 0 1.1 11a9.836 9.836 0 0 0 2.899 7.001A9.836 9.836 0 0 0 11 20.9zm0 1.1C4.923 22 0 17.078 0 11 0 4.923 4.923 0 11 0c6.078 0 11 4.923 11 11 0 6.078-4.922 11-11 11z" fill="#CACACB"/>
    <path d="m5.924 10.154 3.808 3.807 6.346-6.346" stroke="#CACACB" stroke-width="1.5" stroke-linecap="round"/>
</svg>
