<svg width="20" height="20" viewBox="0 0 20 20" fill="none" xmlns="http://www.w3.org/2000/svg">
    <path d="M13.27 4.54h1.442A1.452 1.452 0 0 1 16.154 6v10.231a1.452 1.452 0 0 1-1.442 1.462H6.058a1.452 1.452 0 0 1-1.442-1.462V6.001a1.452 1.452 0 0 1 1.442-1.462H7.5" stroke="#6F6F6F" stroke-miterlimit="10" stroke-linecap="round" stroke-linejoin="round"/>
    <path d="M12.27 3.078H8.5a1 1 0 0 0-1 1v.923a1 1 0 0 0 1 1h3.77a1 1 0 0 0 1-1v-.923a1 1 0 0 0-1-1z" stroke="#6F6F6F" stroke-miterlimit="10" stroke-linecap="round" stroke-linejoin="round"/>
</svg>
