<svg width="24" height="24" viewBox="0 0 24 24" fill="none" xmlns="http://www.w3.org/2000/svg">
    <circle r="1.75" transform="matrix(-1 0 0 1 16 5.5)" stroke="#fff" stroke-width="1.5"/>
    <circle r="1.75" transform="matrix(-1 0 0 1 16 18.5)" stroke="#fff" stroke-width="1.5"/>
    <circle r="1.75" transform="matrix(-1 0 0 1 8 12)" stroke="#fff" stroke-width="1.5"/>
    <path d="m13.506 6.436.565-.494.987 1.129-.564.493-.988-1.128zm-3.012 4.628-.565.494-.987-1.129.564-.493.988 1.128zm4-3.5-4 3.5-.988-1.128 4-3.5.988 1.128zM14.002 18.06l.56.499.997-1.121-.56-.499-.997 1.122zm-3.504-5.12-.56-.499-.997 1.121.56.499.997-1.122zm4.5 4-4.5-4-.996 1.12 4.5 4 .996-1.12z" fill="#fff"/>
</svg>
