<svg width="26" height="26" viewBox="0 0 26 26" fill="none" xmlns="http://www.w3.org/2000/svg">
    <path d="M12.768 6.036a6.227 6.227 0 0 0-4.432 1.836A6.227 6.227 0 0 0 6.5 12.304c0 1.674.652 3.248 1.836 4.432a6.227 6.227 0 0 0 4.432 1.835 6.227 6.227 0 0 0 4.432-1.835 6.226 6.226 0 0 0 1.836-4.432A6.227 6.227 0 0 0 17.2 7.872a6.227 6.227 0 0 0-4.432-1.836zm0-1.393a7.66 7.66 0 1 1 0 15.321 7.66 7.66 0 0 1 0-15.321z" fill="#606060"/>
    <path d="m18.107 17.643 2.786 2.786" stroke="#606060" stroke-width="1.5" stroke-linecap="round"/>
</svg>
