<svg width="16" height="16" viewBox="0 0 16 16" fill="none" xmlns="http://www.w3.org/2000/svg">
    <path fill-rule="evenodd" clip-rule="evenodd" d="M12.38 13.124c-.078.163-.186.256-.298.26h-4.01a.222.222 0 0 1-.065-.012.31.31 0 0 1-.08.012h.001-4.01a.383.383 0 0 1-.298-.178.723.723 0 0 1-.12-.418V8.131c0-.1.017-.2.052-.289a.567.567 0 0 1 .147-.218l2.004-1.766a.332.332 0 0 1 .22-.089c.078 0 .155.031.22.09l1.51 1.33V5.744c0-.147.018-.292.053-.42a.91.91 0 0 1 .147-.319L9.857 3.13C9.923 3.045 10 3 10.077 3c.078 0 .154.045.22.13l2.004 1.875c.062.08.112.189.147.318.035.129.053.274.052.42v6.774a1.42 1.42 0 0 1-.12.607z" fill="#fff"/>
    <path d="M12.082 13.384v.5h.018l-.018-.5zm.298-.26.45.217-.45-.217zm-4.308.26-.018.5h.018v-.5zm-.065-.012.165-.472a.5.5 0 0 0-.303-.009l.138.481zm-.08.012-.011-.5a.5.5 0 0 0-.327.868l.339-.368zm.001 0v.5a.5.5 0 0 0 .339-.867l-.339.367zm-4.01 0-.012.5h.012v-.5zm-.298-.178.41-.287-.41.287zm-.12-.418.5.005v-.005h-.5zm0-4.657H4v-.003l-.5.003zm.052-.289-.466-.182.466.182zm.147-.218-.33-.376-.002.002.332.374zm2.004-1.766.33.375h.001l-.33-.375zm.44 0-.331.375.331-.375zm1.51 1.33-.33.376a.5.5 0 0 0 .83-.375h-.5zm0-1.444h.5v-.002l-.5.002zm.053-.42-.483-.13.483.13zm.147-.319L7.51 4.64a.5.5 0 0 0-.054.06l.396.305zM9.857 3.13l.342.366a.497.497 0 0 0 .053-.059l-.395-.307zm.44 0-.395.307c.016.021.034.04.053.059l.342-.366zm2.004 1.876.396-.306a.496.496 0 0 0-.054-.06l-.342.366zm.199.738-.5-.002v.002h.5zm0 6.774H12v.003l.5-.003zm-.4 1.367c.393-.014.623-.32.73-.543l-.9-.434c-.019.038-.028.041-.015.03a.244.244 0 0 1 .149-.052l.036.999zm-4.028 0h4.01v-1h-4.01v1zm-.23-.04a.722.722 0 0 0 .212.04l.036-1c.03.002.058.008.082.016l-.33.944zm.098.04a.81.81 0 0 0 .204-.031l-.275-.962a.186.186 0 0 1 .047-.007l.024 1zm.327-.867-.678.735.678-.735zm-4.349.867h4.01v-1h-4.01v1zm-.707-.391c.147.21.39.384.695.391l.025-1c.036.002.065.013.082.023s.02.017.016.011l-.818.575zm-.21-.71c-.003.245.063.5.21.71l.818-.575A.232.232 0 0 1 4 12.793l-1-.01zM3 8.131v4.657h1V8.131H3zm.086-.471c-.059.151-.087.314-.086.474l1-.006c0-.041.007-.077.018-.104l-.932-.364zm.28-.41c-.129.115-.22.26-.28.41l.932.364A.135.135 0 0 1 4.03 8c.003-.005.003-.005 0-.001l-.664-.748zm2.007-1.767L3.368 7.248l.661.75 2.005-1.765-.661-.75zm.55-.214a.831.831 0 0 0-.551.215l.662.749a.172.172 0 0 1-.11.036v-1zm.551.215a.831.831 0 0 0-.55-.215v1a.172.172 0 0 1-.112-.036l.662-.75zm1.51 1.33-1.51-1.331-.661.75 1.51 1.33.661-.75zm-.83-1.07v1.445h1V5.744h-1zm.069-.55c-.047.175-.07.365-.07.552l1-.004c0-.107.014-.207.036-.289l-.966-.26zm.234-.495a1.404 1.404 0 0 0-.234.494l.966.26a.437.437 0 0 1 .059-.142l-.79-.612zm2.058-1.935L7.511 4.64l.683.73L10.2 3.495l-.684-.73zm.562-.264a.784.784 0 0 0-.615.323l.79.613c.009-.01-.046.064-.175.064v-1zm.615.323a.783.783 0 0 0-.615-.323v1c-.129 0-.184-.075-.175-.064l.79-.613zm1.951 1.817-2.004-1.876-.684.73L11.96 5.37l.683-.73zm.288.553a1.406 1.406 0 0 0-.234-.494l-.791.612c.01.013.036.056.06.142l.965-.26zm.069.553c0-.187-.022-.377-.07-.553l-.965.26c.022.082.035.182.035.288l1 .005zm0 6.77V5.744h-1v6.774h1zm-.17.825c.12-.246.172-.544.17-.828l-1 .007a.929.929 0 0 1-.07.387l.9.434z" fill="#6F6F6F"/>
    <path d="M9.5 7h1M9.5 9h1M5.5 11h1" stroke="#6F6F6F" stroke-linecap="round"/>
</svg>
