<svg width="20" height="20" viewBox="0 0 20 20" fill="none" xmlns="http://www.w3.org/2000/svg">
    <circle cx="10" cy="10" r="9" fill="#E2E2E2"/>
    <path d="M9.596 5.962a3.61 3.61 0 0 0-2.57 1.065 3.61 3.61 0 0 0-1.065 2.57c0 .97.378 1.883 1.065 2.57a3.61 3.61 0 0 0 2.57 1.064 3.61 3.61 0 0 0 2.57-1.064 3.61 3.61 0 0 0 1.064-2.57 3.61 3.61 0 0 0-1.064-2.57 3.61 3.61 0 0 0-2.57-1.065zm0-.808a4.442 4.442 0 1 1 0 8.885 4.442 4.442 0 0 1 0-8.885z" fill="#fff"/>
    <path d="m12.501 13 1.268 1.308" stroke="#fff" stroke-linecap="round"/>
</svg>
