<svg width="14" height="14" viewBox="0 0 14 14" fill="none" xmlns="http://www.w3.org/2000/svg">
    <path d="M12 3.5a.5.5 0 0 0 0-1v1zm-6-1a.5.5 0 0 0 0 1v-1zm6 0H6v1h6v-1zM12 7.5a.5.5 0 0 0 0-1v1zm-6-1a.5.5 0 0 0 0 1v-1zm6 0H6v1h6v-1zM12 11.5a.5.5 0 0 0 0-1v1zm-10-1a.5.5 0 0 0 0 1v-1zm10 0H2v1h10v-1z" fill="#000"/>
    <rect x="2" y="2" width="2" height="2" rx="1" stroke="#000" stroke-linejoin="round"/>
    <rect x="2" y="6" width="2" height="2" rx="1" stroke="#000" stroke-linejoin="round"/>
</svg>
