<svg width="20" height="20" viewBox="0 0 20 20" fill="none" xmlns="http://www.w3.org/2000/svg">
    <path d="M10.385 12.586a2.203 2.203 0 1 0 0-4.406 2.203 2.203 0 0 0 0 4.406z" stroke="#6F6F6F" stroke-miterlimit="10" stroke-linecap="round" stroke-linejoin="round"/>
    <path d="M15.818 12.585a1.212 1.212 0 0 0 .243 1.336l.044.044a1.468 1.468 0 0 1-1.6 2.413 1.47 1.47 0 0 1-.477-.336l-.044-.044a1.221 1.221 0 0 0-2.071.866v.124a1.468 1.468 0 1 1-2.937 0v-.068a1.212 1.212 0 0 0-.793-1.108 1.211 1.211 0 0 0-1.336.242l-.044.044a1.47 1.47 0 0 1-2.538-1.03 1.47 1.47 0 0 1 .461-1.047l.044-.044a1.222 1.222 0 0 0-.866-2.07h-.128a1.468 1.468 0 1 1 0-2.938h.07a1.212 1.212 0 0 0 1.105-.79 1.212 1.212 0 0 0-.243-1.336L4.665 6.8A1.47 1.47 0 1 1 6.74 4.722l.044.044a1.211 1.211 0 0 0 1.336.243h.059A1.211 1.211 0 0 0 8.915 3.9v-.127a1.468 1.468 0 1 1 2.937 0v.07a1.222 1.222 0 0 0 2.071.862l.044-.043a1.47 1.47 0 1 1 2.077 2.077L16 6.782a1.212 1.212 0 0 0-.242 1.337v.058a1.211 1.211 0 0 0 1.108.735h.125a1.469 1.469 0 1 1 0 2.936h-.068a1.211 1.211 0 0 0-1.105.737v0z" stroke="#6F6F6F" stroke-miterlimit="10" stroke-linecap="round" stroke-linejoin="round"/>
</svg>
