<svg width="14" height="14" viewBox="0 0 14 14" fill="none" xmlns="http://www.w3.org/2000/svg">
    <path d="m1.5 11.454 1.427-5h7.88l1.693 5h-11z" stroke="#000" stroke-linecap="round" stroke-linejoin="round"/>
    <path d="M9.5 4.83c0 1.336-1.364 3.056-2.097 3.884a.606.606 0 0 1-.907 0C5.762 7.89 4.397 6.173 4.4 4.83A2.54 2.54 0 0 1 6.95 2.3 2.54 2.54 0 0 1 9.5 4.83z" fill="#fff"/>
    <path d="m7.403 8.714-.374-.331.374.331zm-.453.204v-.5.5zm-.454-.204.374-.331v-.001l-.374.332zM4.4 4.83l-.5-.002v.001l.5.001zM6.95 2.3l-.002.5h.004l-.002-.5zM9 4.83c0 .523-.276 1.187-.698 1.87-.412.666-.916 1.28-1.273 1.683l.749.663c.375-.425.92-1.086 1.374-1.82.443-.718.849-1.582.849-2.395H9zM7.03 8.384a.106.106 0 0 1-.036.026l.41.912c.143-.064.27-.158.375-.275l-.749-.663zm-.036.026a.106.106 0 0 1-.043.01v1c.156 0 .311-.034.454-.098l-.41-.912zm-.043.01a.106.106 0 0 1-.044-.01l-.41.912c.142.064.297.097.454.097v-1zm-.044-.01a.106.106 0 0 1-.036-.026l-.748.663c.104.117.231.21.374.275l.41-.912zm-.036-.027a12.645 12.645 0 0 1-1.273-1.679C5.175 6.021 4.9 5.357 4.9 4.831l-1-.002c-.002.817.403 1.682.847 2.4.453.735.999 1.394 1.375 1.817l.748-.664zM4.9 4.832a2.04 2.04 0 0 1 .158-.78l-.922-.386A3.04 3.04 0 0 0 3.9 4.828l1 .004zm.158-.78a2.04 2.04 0 0 1 .445-.66l-.704-.71a3.04 3.04 0 0 0-.663.984l.922.386zm.445-.66a2.04 2.04 0 0 1 .664-.44l-.38-.925a3.04 3.04 0 0 0-.988.655l.704.71zm.664-.44a2.04 2.04 0 0 1 .781-.152l.004-1a3.04 3.04 0 0 0-1.164.227l.379.925zm.785-.152c.268-.001.534.05.782.152l.379-.925A3.04 3.04 0 0 0 6.948 1.8l.004 1zm.782.152c.248.102.473.251.664.44l.704-.71a3.04 3.04 0 0 0-.99-.655l-.378.925zm.664.44c.19.189.341.413.445.66l.922-.386a3.04 3.04 0 0 0-.663-.984l-.704.71zm.445.66c.103.247.157.513.158.78l1-.003a3.04 3.04 0 0 0-.236-1.163l-.922.386z" fill="#000"/>
    <circle r=".846" transform="matrix(1 0 0 -1 6.938 4.838)" fill="#000"/>
</svg>
