<svg width="22" height="22" viewBox="0 0 22 22" fill="none" xmlns="http://www.w3.org/2000/svg">
    <circle cx="7" cy="4.5" r="1.75" stroke="#000" stroke-width="1.5"/>
    <circle cx="7" cy="17.5" r="1.75" stroke="#000" stroke-width="1.5"/>
    <circle cx="15" cy="11" r="1.75" stroke="#000" stroke-width="1.5"/>
    <path d="m9.494 5.436-.565-.494-.987 1.129.564.493.988-1.128zm3.012 4.628.565.494.987-1.129-.564-.493-.988 1.128zm-4-3.5 4 3.5.988-1.128-4-3.5-.988 1.128zM8.998 17.06l-.56.499-.997-1.121.56-.499.997 1.122zm3.504-5.12.56-.499.997 1.121-.56.499-.997-1.122zm-4.5 4 4.5-4 .996 1.12-4.5 4-.996-1.12z" fill="#000"/>
</svg>
